<svg width="512" height="512" viewBox="0 0 512 512" fill="none" xmlns="http://www.w3.org/2000/svg">
<g clip-path="url(#clip0)">
<path fill-rule="evenodd" clip-rule="evenodd" d="M243.839 0C183.813 5.99922 71.1885 56.4676 100.901 210.348C208.949 210.348 269.95 351.404 171.807 357.703C171.807 625.418 551.097 511.808 364.266 267.715C336.129 254.592 280.53 218.222 283.231 177.727C281.994 176.49 278.339 178.274 273.484 180.644C265.089 184.742 253.109 190.59 243.839 185.601C229.207 177.727 123.411 105.736 243.839 0ZM346.258 131.608C344.383 149.605 347.384 185.601 374.396 185.601C422.792 185.601 421.666 277.839 346.258 235.094C329.751 220.096 306.641 178.402 346.258 131.608ZM314.339 373.452L296.331 292.463L281.7 373.452L233.304 388.075L281.7 402.698L296.331 481.438L314.339 402.698L366.112 388.075L314.339 373.452Z" fill="url(#paint0_linear)"/>
</g>
<defs>
<linearGradient id="paint0_linear" x1="256" y1="0" x2="256" y2="512" gradientUnits="userSpaceOnUse">
<stop stop-color="#F6361E"/>
<stop offset="1" stop-color="#C5241C"/>
</linearGradient>
<clipPath id="clip0">
<rect width="512" height="512" fill="white"/>
</clipPath>
</defs>
</svg>
